G04 (created by PCBNEW (2013-jul-07)-stable) date Sun 25 Jun 2017 04:49:44 PM PDT*
%MOIN*%
G04 Gerber Fmt 3.4, Leading zero omitted, Abs format*
%FSLAX34Y34*%
G01*
G70*
G90*
G04 APERTURE LIST*
%ADD10C,0.00590551*%
%ADD11R,0.06X0.06*%
%ADD12C,0.06*%
%ADD13C,0.015*%
%ADD14C,0.1*%
%ADD15R,0.00555118X0.03*%
%ADD16C,0.015*%
G04 APERTURE END LIST*
G54D10*
G54D11*
X21000Y-21500D03*
G54D12*
X21000Y-22500D03*
X21000Y-23500D03*
G54D13*
X29900Y-22000D03*
G54D14*
X30400Y-22500D03*
G54D10*
G36*
X29732Y-22713D02*
X29751Y-22765D01*
X29469Y-22868D01*
X29450Y-22815D01*
X29732Y-22713D01*
X29732Y-22713D01*
G37*
G36*
X29742Y-22742D02*
X29763Y-22793D01*
X29487Y-22908D01*
X29465Y-22857D01*
X29742Y-22742D01*
X29742Y-22742D01*
G37*
G36*
X29754Y-22771D02*
X29777Y-22821D01*
X29505Y-22948D01*
X29482Y-22898D01*
X29754Y-22771D01*
X29754Y-22771D01*
G37*
G36*
X29766Y-22799D02*
X29792Y-22848D01*
X29526Y-22987D01*
X29500Y-22938D01*
X29766Y-22799D01*
X29766Y-22799D01*
G37*
G36*
X29780Y-22826D02*
X29808Y-22874D01*
X29548Y-23025D01*
X29521Y-22977D01*
X29780Y-22826D01*
X29780Y-22826D01*
G37*
G36*
X29795Y-22853D02*
X29825Y-22900D01*
X29572Y-23062D01*
X29542Y-23015D01*
X29795Y-22853D01*
X29795Y-22853D01*
G37*
G36*
X29811Y-22880D02*
X29843Y-22925D01*
X29598Y-23098D01*
X29566Y-23053D01*
X29811Y-22880D01*
X29811Y-22880D01*
G37*
G36*
X29828Y-22905D02*
X29862Y-22949D01*
X29625Y-23133D01*
X29591Y-23089D01*
X29828Y-22905D01*
X29828Y-22905D01*
G37*
G36*
X29847Y-22930D02*
X29883Y-22972D01*
X29654Y-23166D01*
X29618Y-23124D01*
X29847Y-22930D01*
X29847Y-22930D01*
G37*
G36*
X29866Y-22954D02*
X29904Y-22995D01*
X29684Y-23199D01*
X29646Y-23158D01*
X29866Y-22954D01*
X29866Y-22954D01*
G37*
G36*
X29887Y-22977D02*
X29926Y-23016D01*
X29715Y-23229D01*
X29676Y-23190D01*
X29887Y-22977D01*
X29887Y-22977D01*
G37*
G36*
X29908Y-22999D02*
X29950Y-23036D01*
X29748Y-23259D01*
X29707Y-23221D01*
X29908Y-22999D01*
X29908Y-22999D01*
G37*
G36*
X29931Y-23020D02*
X29974Y-23056D01*
X29782Y-23287D01*
X29740Y-23251D01*
X29931Y-23020D01*
X29931Y-23020D01*
G37*
G36*
X29954Y-23040D02*
X29999Y-23074D01*
X29818Y-23313D01*
X29773Y-23280D01*
X29954Y-23040D01*
X29954Y-23040D01*
G37*
G36*
X29979Y-23060D02*
X30024Y-23091D01*
X29854Y-23338D01*
X29808Y-23307D01*
X29979Y-23060D01*
X29979Y-23060D01*
G37*
G36*
X30004Y-23078D02*
X30051Y-23107D01*
X29891Y-23361D01*
X29844Y-23332D01*
X30004Y-23078D01*
X30004Y-23078D01*
G37*
G36*
X30029Y-23094D02*
X30078Y-23122D01*
X29930Y-23383D01*
X29882Y-23355D01*
X30029Y-23094D01*
X30029Y-23094D01*
G37*
G36*
X30056Y-23110D02*
X30106Y-23135D01*
X29969Y-23403D01*
X29920Y-23377D01*
X30056Y-23110D01*
X30056Y-23110D01*
G37*
G36*
X30083Y-23125D02*
X30134Y-23148D01*
X30009Y-23421D01*
X29959Y-23398D01*
X30083Y-23125D01*
X30083Y-23125D01*
G37*
G36*
X30111Y-23138D02*
X30163Y-23159D01*
X30050Y-23437D01*
X29999Y-23416D01*
X30111Y-23138D01*
X30111Y-23138D01*
G37*
G36*
X30139Y-23150D02*
X30192Y-23168D01*
X30092Y-23451D01*
X30040Y-23433D01*
X30139Y-23150D01*
X30139Y-23150D01*
G37*
G36*
X30168Y-23161D02*
X30222Y-23177D01*
X30134Y-23464D01*
X30081Y-23448D01*
X30168Y-23161D01*
X30168Y-23161D01*
G37*
G36*
X30198Y-23170D02*
X30252Y-23184D01*
X30177Y-23475D01*
X30123Y-23461D01*
X30198Y-23170D01*
X30198Y-23170D01*
G37*
G36*
X30228Y-23179D02*
X30282Y-23190D01*
X30220Y-23484D01*
X30166Y-23472D01*
X30228Y-23179D01*
X30228Y-23179D01*
G37*
G36*
X30258Y-23186D02*
X30312Y-23195D01*
X30264Y-23491D01*
X30209Y-23482D01*
X30258Y-23186D01*
X30258Y-23186D01*
G37*
G36*
X30288Y-23191D02*
X30343Y-23198D01*
X30308Y-23496D01*
X30253Y-23489D01*
X30288Y-23191D01*
X30288Y-23191D01*
G37*
G36*
X30319Y-23195D02*
X30374Y-23200D01*
X30352Y-23499D01*
X30296Y-23495D01*
X30319Y-23195D01*
X30319Y-23195D01*
G37*
G36*
X30350Y-23198D02*
X30405Y-23200D01*
X30396Y-23500D01*
X30340Y-23498D01*
X30350Y-23198D01*
X30350Y-23198D01*
G37*
G36*
X30380Y-23200D02*
X30436Y-23199D01*
X30440Y-23499D01*
X30384Y-23500D01*
X30380Y-23200D01*
X30380Y-23200D01*
G37*
G36*
X30411Y-23200D02*
X30466Y-23197D01*
X30484Y-23496D01*
X30428Y-23500D01*
X30411Y-23200D01*
X30411Y-23200D01*
G37*
G36*
X30442Y-23199D02*
X30497Y-23193D01*
X30528Y-23492D01*
X30472Y-23497D01*
X30442Y-23199D01*
X30442Y-23199D01*
G37*
G36*
X30473Y-23196D02*
X30528Y-23188D01*
X30571Y-23485D01*
X30516Y-23493D01*
X30473Y-23196D01*
X30473Y-23196D01*
G37*
G36*
X30503Y-23192D02*
X30558Y-23182D01*
X30615Y-23476D01*
X30560Y-23487D01*
X30503Y-23192D01*
X30503Y-23192D01*
G37*
G36*
X30534Y-23187D02*
X30588Y-23174D01*
X30657Y-23466D01*
X30603Y-23479D01*
X30534Y-23187D01*
X30534Y-23187D01*
G37*
G36*
X30564Y-23180D02*
X30617Y-23165D01*
X30700Y-23454D01*
X30646Y-23469D01*
X30564Y-23180D01*
X30564Y-23180D01*
G37*
G36*
X30594Y-23173D02*
X30647Y-23155D01*
X30741Y-23440D01*
X30689Y-23457D01*
X30594Y-23173D01*
X30594Y-23173D01*
G37*
G36*
X30623Y-23163D02*
X30675Y-23144D01*
X30783Y-23424D01*
X30731Y-23443D01*
X30623Y-23163D01*
X30623Y-23163D01*
G37*
G36*
X30652Y-23153D02*
X30703Y-23131D01*
X30823Y-23406D01*
X30772Y-23428D01*
X30652Y-23153D01*
X30652Y-23153D01*
G37*
G36*
X30681Y-23141D02*
X30731Y-23117D01*
X30862Y-23386D01*
X30812Y-23411D01*
X30681Y-23141D01*
X30681Y-23141D01*
G37*
G36*
X30709Y-23128D02*
X30758Y-23102D01*
X30901Y-23365D01*
X30852Y-23392D01*
X30709Y-23128D01*
X30709Y-23128D01*
G37*
G36*
X30736Y-23114D02*
X30784Y-23085D01*
X30939Y-23342D01*
X30891Y-23371D01*
X30736Y-23114D01*
X30736Y-23114D01*
G37*
G36*
X30763Y-23098D02*
X30809Y-23068D01*
X30975Y-23318D01*
X30929Y-23348D01*
X30763Y-23098D01*
X30763Y-23098D01*
G37*
G36*
X30789Y-23082D02*
X30834Y-23049D01*
X31011Y-23291D01*
X30966Y-23324D01*
X30789Y-23082D01*
X30789Y-23082D01*
G37*
G36*
X30814Y-23064D02*
X30858Y-23029D01*
X31045Y-23264D01*
X31002Y-23298D01*
X30814Y-23064D01*
X30814Y-23064D01*
G37*
G36*
X30839Y-23045D02*
X30880Y-23009D01*
X31078Y-23235D01*
X31036Y-23271D01*
X30839Y-23045D01*
X30839Y-23045D01*
G37*
G36*
X30862Y-23025D02*
X30903Y-22987D01*
X31110Y-23204D01*
X31070Y-23242D01*
X30862Y-23025D01*
X30862Y-23025D01*
G37*
G36*
X30885Y-23004D02*
X30924Y-22964D01*
X31140Y-23172D01*
X31102Y-23212D01*
X30885Y-23004D01*
X30885Y-23004D01*
G37*
G36*
X30907Y-22982D02*
X30944Y-22941D01*
X31169Y-23139D01*
X31132Y-23180D01*
X30907Y-22982D01*
X30907Y-22982D01*
G37*
G36*
X30928Y-22960D02*
X30962Y-22917D01*
X31196Y-23104D01*
X31162Y-23147D01*
X30928Y-22960D01*
X30928Y-22960D01*
G37*
G36*
X30947Y-22936D02*
X30980Y-22891D01*
X31222Y-23068D01*
X31190Y-23113D01*
X30947Y-22936D01*
X30947Y-22936D01*
G37*
G36*
X30966Y-22911D02*
X30997Y-22865D01*
X31247Y-23032D01*
X31216Y-23078D01*
X30966Y-22911D01*
X30966Y-22911D01*
G37*
G36*
X30984Y-22886D02*
X31013Y-22839D01*
X31269Y-22994D01*
X31240Y-23041D01*
X30984Y-22886D01*
X30984Y-22886D01*
G37*
G36*
X31000Y-22860D02*
X31027Y-22811D01*
X31290Y-22955D01*
X31264Y-23004D01*
X31000Y-22860D01*
X31000Y-22860D01*
G37*
G36*
X31015Y-22833D02*
X31040Y-22783D01*
X31309Y-22915D01*
X31285Y-22965D01*
X31015Y-22833D01*
X31015Y-22833D01*
G37*
G36*
X31030Y-22806D02*
X31052Y-22755D01*
X31327Y-22875D01*
X31305Y-22926D01*
X31030Y-22806D01*
X31030Y-22806D01*
G37*
G36*
X31043Y-22778D02*
X31063Y-22726D01*
X31342Y-22834D01*
X31322Y-22886D01*
X31043Y-22778D01*
X31043Y-22778D01*
G37*
G36*
X31054Y-22749D02*
X31072Y-22696D01*
X31356Y-22792D01*
X31339Y-22844D01*
X31054Y-22749D01*
X31054Y-22749D01*
G37*
G36*
X31064Y-22720D02*
X31080Y-22667D01*
X31368Y-22749D01*
X31353Y-22803D01*
X31064Y-22720D01*
X31064Y-22720D01*
G37*
G36*
X31074Y-22690D02*
X31087Y-22636D01*
X31378Y-22706D01*
X31365Y-22760D01*
X31074Y-22690D01*
X31074Y-22690D01*
G37*
G36*
X31081Y-22660D02*
X31092Y-22606D01*
X31386Y-22663D01*
X31376Y-22718D01*
X31081Y-22660D01*
X31081Y-22660D01*
G37*
G36*
X31088Y-22630D02*
X31096Y-22576D01*
X31393Y-22619D01*
X31385Y-22674D01*
X31088Y-22630D01*
X31088Y-22630D01*
G37*
G36*
X31093Y-22600D02*
X31099Y-22545D01*
X31397Y-22576D01*
X31391Y-22631D01*
X31093Y-22600D01*
X31093Y-22600D01*
G37*
G36*
X31097Y-22569D02*
X31100Y-22514D01*
X31399Y-22532D01*
X31396Y-22587D01*
X31097Y-22569D01*
X31097Y-22569D01*
G37*
G36*
X31099Y-22538D02*
X31100Y-22483D01*
X31400Y-22488D01*
X31399Y-22543D01*
X31099Y-22538D01*
X31099Y-22538D01*
G37*
G36*
X31100Y-22507D02*
X31098Y-22452D01*
X31398Y-22444D01*
X31400Y-22499D01*
X31100Y-22507D01*
X31100Y-22507D01*
G37*
G36*
X31100Y-22477D02*
X31096Y-22421D01*
X31395Y-22400D01*
X31399Y-22455D01*
X31100Y-22477D01*
X31100Y-22477D01*
G37*
G36*
X31098Y-22446D02*
X31092Y-22391D01*
X31390Y-22356D01*
X31396Y-22411D01*
X31098Y-22446D01*
X31098Y-22446D01*
G37*
G36*
X31095Y-22415D02*
X31086Y-22360D01*
X31382Y-22313D01*
X31391Y-22367D01*
X31095Y-22415D01*
X31095Y-22415D01*
G37*
G36*
X31091Y-22384D02*
X31079Y-22330D01*
X31373Y-22269D01*
X31384Y-22324D01*
X31091Y-22384D01*
X31091Y-22384D01*
G37*
G36*
X31085Y-22354D02*
X31071Y-22300D01*
X31362Y-22227D01*
X31376Y-22280D01*
X31085Y-22354D01*
X31085Y-22354D01*
G37*
G36*
X31078Y-22324D02*
X31062Y-22271D01*
X31349Y-22185D01*
X31365Y-22238D01*
X31078Y-22324D01*
X31078Y-22324D01*
G37*
G36*
X31069Y-22294D02*
X31051Y-22242D01*
X31334Y-22143D01*
X31353Y-22196D01*
X31069Y-22294D01*
X31069Y-22294D01*
G37*
G36*
X31060Y-22265D02*
X31039Y-22214D01*
X31318Y-22102D01*
X31338Y-22154D01*
X31060Y-22265D01*
X31060Y-22265D01*
G37*
G36*
X31049Y-22236D02*
X31026Y-22186D01*
X31299Y-22062D01*
X31322Y-22113D01*
X31049Y-22236D01*
X31049Y-22236D01*
G37*
G36*
X31036Y-22208D02*
X31011Y-22158D01*
X31279Y-22023D01*
X31304Y-22072D01*
X31036Y-22208D01*
X31036Y-22208D01*
G37*
G36*
X31023Y-22180D02*
X30996Y-22131D01*
X31257Y-21985D01*
X31284Y-22033D01*
X31023Y-22180D01*
X31023Y-22180D01*
G37*
G36*
X31008Y-22153D02*
X30979Y-22106D01*
X31234Y-21947D01*
X31263Y-21994D01*
X31008Y-22153D01*
X31008Y-22153D01*
G37*
G36*
X30992Y-22126D02*
X30961Y-22081D01*
X31209Y-21911D01*
X31240Y-21957D01*
X30992Y-22126D01*
X30992Y-22126D01*
G37*
G36*
X30975Y-22101D02*
X30942Y-22056D01*
X31182Y-21876D01*
X31215Y-21920D01*
X30975Y-22101D01*
X30975Y-22101D01*
G37*
G36*
X30957Y-22076D02*
X30922Y-22033D01*
X31154Y-21842D01*
X31189Y-21885D01*
X30957Y-22076D01*
X30957Y-22076D01*
G37*
G36*
X30938Y-22052D02*
X30901Y-22010D01*
X31124Y-21810D01*
X31161Y-21851D01*
X30938Y-22052D01*
X30938Y-22052D01*
G37*
G36*
X30918Y-22028D02*
X30879Y-21989D01*
X31093Y-21778D01*
X31132Y-21818D01*
X30918Y-22028D01*
X30918Y-22028D01*
G37*
G36*
X30896Y-22006D02*
X30856Y-21968D01*
X31060Y-21749D01*
X31101Y-21786D01*
X30896Y-22006D01*
X30896Y-22006D01*
G37*
G36*
X30874Y-21984D02*
X30832Y-21948D01*
X31027Y-21720D01*
X31069Y-21756D01*
X30874Y-21984D01*
X30874Y-21984D01*
G37*
G36*
X30851Y-21964D02*
X30807Y-21930D01*
X30992Y-21693D01*
X31035Y-21727D01*
X30851Y-21964D01*
X30851Y-21964D01*
G37*
G36*
X30827Y-21945D02*
X30782Y-21912D01*
X30956Y-21668D01*
X31001Y-21700D01*
X30827Y-21945D01*
X30827Y-21945D01*
G37*
G36*
X30802Y-21926D02*
X30756Y-21896D01*
X30918Y-21644D01*
X30965Y-21674D01*
X30802Y-21926D01*
X30802Y-21926D01*
G37*
G36*
X30776Y-21909D02*
X30729Y-21881D01*
X30880Y-21622D01*
X30928Y-21650D01*
X30776Y-21909D01*
X30776Y-21909D01*
G37*
G36*
X30750Y-21893D02*
X30701Y-21867D01*
X30841Y-21602D01*
X30890Y-21628D01*
X30750Y-21893D01*
X30750Y-21893D01*
G37*
G36*
X30723Y-21878D02*
X30673Y-21854D01*
X30801Y-21583D01*
X30851Y-21607D01*
X30723Y-21878D01*
X30723Y-21878D01*
G37*
G36*
X30695Y-21865D02*
X30644Y-21843D01*
X30760Y-21566D01*
X30812Y-21588D01*
X30695Y-21865D01*
X30695Y-21865D01*
G37*
G36*
X30667Y-21852D02*
X30615Y-21833D01*
X30719Y-21551D01*
X30771Y-21571D01*
X30667Y-21852D01*
X30667Y-21852D01*
G37*
G36*
X30638Y-21841D02*
X30586Y-21824D01*
X30677Y-21538D01*
X30730Y-21555D01*
X30638Y-21841D01*
X30638Y-21841D01*
G37*
G36*
X30609Y-21831D02*
X30556Y-21817D01*
X30634Y-21527D01*
X30688Y-21542D01*
X30609Y-21831D01*
X30609Y-21831D01*
G37*
G36*
X30579Y-21822D02*
X30525Y-21810D01*
X30591Y-21518D01*
X30645Y-21530D01*
X30579Y-21822D01*
X30579Y-21822D01*
G37*
G36*
X30549Y-21815D02*
X30495Y-21805D01*
X30548Y-21510D01*
X30602Y-21520D01*
X30549Y-21815D01*
X30549Y-21815D01*
G37*
G36*
X30519Y-21809D02*
X30464Y-21802D01*
X30504Y-21505D01*
X30559Y-21512D01*
X30519Y-21809D01*
X30519Y-21809D01*
G37*
G36*
X30489Y-21805D02*
X30433Y-21800D01*
X30460Y-21501D01*
X30515Y-21506D01*
X30489Y-21805D01*
X30489Y-21805D01*
G37*
G36*
X30458Y-21801D02*
X30402Y-21799D01*
X30416Y-21499D01*
X30471Y-21502D01*
X30458Y-21801D01*
X30458Y-21801D01*
G37*
G54D15*
X30400Y-21650D03*
G54D16*
X21000Y-21500D02*
X28900Y-21500D01*
X29050Y-21650D02*
X30437Y-21650D01*
X28900Y-21500D02*
X29050Y-21650D01*
X21000Y-22500D02*
X26700Y-22500D01*
X27200Y-22000D02*
X29900Y-22000D01*
X26700Y-22500D02*
X27200Y-22000D01*
X21000Y-23500D02*
X27300Y-23500D01*
X28300Y-22500D02*
X30400Y-22500D01*
X27300Y-23500D02*
X28300Y-22500D01*
M02*
