G04 (created by PCBNEW (2013-jul-07)-stable) date Sun 25 Jun 2017 04:49:44 PM PDT*
%MOIN*%
G04 Gerber Fmt 3.4, Leading zero omitted, Abs format*
%FSLAX34Y34*%
G01*
G70*
G90*
G04 APERTURE LIST*
%ADD10C,0.00590551*%
%ADD11C,0.008*%
%ADD12C,0.005*%
%ADD13C,0.006*%
G04 APERTURE END LIST*
G54D10*
G54D11*
X21728Y-23261D02*
X21823Y-23661D01*
X21900Y-23376D01*
X21976Y-23661D01*
X22071Y-23261D01*
X22452Y-23661D02*
X22319Y-23471D01*
X22223Y-23661D02*
X22223Y-23261D01*
X22376Y-23261D01*
X22414Y-23280D01*
X22433Y-23300D01*
X22452Y-23338D01*
X22452Y-23395D01*
X22433Y-23433D01*
X22414Y-23452D01*
X22376Y-23471D01*
X22223Y-23471D01*
X22623Y-23661D02*
X22623Y-23261D01*
X22852Y-23661D02*
X22680Y-23433D01*
X22852Y-23261D02*
X22623Y-23490D01*
X21971Y-22661D02*
X21838Y-22471D01*
X21742Y-22661D02*
X21742Y-22261D01*
X21895Y-22261D01*
X21933Y-22280D01*
X21952Y-22300D01*
X21971Y-22338D01*
X21971Y-22395D01*
X21952Y-22433D01*
X21933Y-22452D01*
X21895Y-22471D01*
X21742Y-22471D01*
X22142Y-22452D02*
X22276Y-22452D01*
X22333Y-22661D02*
X22142Y-22661D01*
X22142Y-22261D01*
X22333Y-22261D01*
X22638Y-22452D02*
X22504Y-22452D01*
X22504Y-22661D02*
X22504Y-22261D01*
X22695Y-22261D01*
X21971Y-21623D02*
X21952Y-21642D01*
X21895Y-21661D01*
X21857Y-21661D01*
X21800Y-21642D01*
X21761Y-21604D01*
X21742Y-21566D01*
X21723Y-21490D01*
X21723Y-21433D01*
X21742Y-21357D01*
X21761Y-21319D01*
X21800Y-21280D01*
X21857Y-21261D01*
X21895Y-21261D01*
X21952Y-21280D01*
X21971Y-21300D01*
X22085Y-21261D02*
X22314Y-21261D01*
X22200Y-21661D02*
X22200Y-21261D01*
X22676Y-21661D02*
X22542Y-21471D01*
X22447Y-21661D02*
X22447Y-21261D01*
X22600Y-21261D01*
X22638Y-21280D01*
X22657Y-21300D01*
X22676Y-21338D01*
X22676Y-21395D01*
X22657Y-21433D01*
X22638Y-21452D01*
X22600Y-21471D01*
X22447Y-21471D01*
G54D12*
X22892Y-24721D02*
X22892Y-24421D01*
X23092Y-24421D02*
X23149Y-24421D01*
X23178Y-24435D01*
X23207Y-24464D01*
X23221Y-24521D01*
X23221Y-24621D01*
X23207Y-24678D01*
X23178Y-24707D01*
X23149Y-24721D01*
X23092Y-24721D01*
X23064Y-24707D01*
X23035Y-24678D01*
X23021Y-24621D01*
X23021Y-24521D01*
X23035Y-24464D01*
X23064Y-24435D01*
X23092Y-24421D01*
X23749Y-24721D02*
X23649Y-24578D01*
X23578Y-24721D02*
X23578Y-24421D01*
X23692Y-24421D01*
X23721Y-24435D01*
X23735Y-24450D01*
X23749Y-24478D01*
X23749Y-24521D01*
X23735Y-24550D01*
X23721Y-24564D01*
X23692Y-24578D01*
X23578Y-24578D01*
X23921Y-24721D02*
X23892Y-24707D01*
X23878Y-24692D01*
X23864Y-24664D01*
X23864Y-24578D01*
X23878Y-24550D01*
X23892Y-24535D01*
X23921Y-24521D01*
X23964Y-24521D01*
X23992Y-24535D01*
X24007Y-24550D01*
X24021Y-24578D01*
X24021Y-24664D01*
X24007Y-24692D01*
X23992Y-24707D01*
X23964Y-24721D01*
X23921Y-24721D01*
X24278Y-24721D02*
X24278Y-24421D01*
X24278Y-24707D02*
X24249Y-24721D01*
X24192Y-24721D01*
X24164Y-24707D01*
X24149Y-24692D01*
X24135Y-24664D01*
X24135Y-24578D01*
X24149Y-24550D01*
X24164Y-24535D01*
X24192Y-24521D01*
X24249Y-24521D01*
X24278Y-24535D01*
X24535Y-24707D02*
X24507Y-24721D01*
X24449Y-24721D01*
X24421Y-24707D01*
X24407Y-24678D01*
X24407Y-24564D01*
X24421Y-24535D01*
X24449Y-24521D01*
X24507Y-24521D01*
X24535Y-24535D01*
X24549Y-24564D01*
X24549Y-24592D01*
X24407Y-24621D01*
X24721Y-24721D02*
X24692Y-24707D01*
X24678Y-24692D01*
X24664Y-24664D01*
X24664Y-24578D01*
X24678Y-24550D01*
X24692Y-24535D01*
X24721Y-24521D01*
X24764Y-24521D01*
X24792Y-24535D01*
X24807Y-24550D01*
X24821Y-24578D01*
X24821Y-24664D01*
X24807Y-24692D01*
X24792Y-24707D01*
X24764Y-24721D01*
X24721Y-24721D01*
X25178Y-24721D02*
X25178Y-24421D01*
X25321Y-24521D02*
X25321Y-24721D01*
X25321Y-24550D02*
X25335Y-24535D01*
X25364Y-24521D01*
X25407Y-24521D01*
X25435Y-24535D01*
X25449Y-24564D01*
X25449Y-24721D01*
X25721Y-24707D02*
X25692Y-24721D01*
X25635Y-24721D01*
X25607Y-24707D01*
X25592Y-24692D01*
X25578Y-24664D01*
X25578Y-24578D01*
X25592Y-24550D01*
X25607Y-24535D01*
X25635Y-24521D01*
X25692Y-24521D01*
X25721Y-24535D01*
X25850Y-24692D02*
X25864Y-24707D01*
X25850Y-24721D01*
X25835Y-24707D01*
X25850Y-24692D01*
X25850Y-24721D01*
X26192Y-24521D02*
X26249Y-24721D01*
X26307Y-24578D01*
X26364Y-24721D01*
X26421Y-24521D01*
X26507Y-24521D02*
X26564Y-24721D01*
X26621Y-24578D01*
X26678Y-24721D01*
X26735Y-24521D01*
X26821Y-24521D02*
X26878Y-24721D01*
X26935Y-24578D01*
X26992Y-24721D01*
X27050Y-24521D01*
X27164Y-24692D02*
X27178Y-24707D01*
X27164Y-24721D01*
X27150Y-24707D01*
X27164Y-24692D01*
X27164Y-24721D01*
X27307Y-24721D02*
X27307Y-24521D01*
X27307Y-24421D02*
X27292Y-24435D01*
X27307Y-24450D01*
X27321Y-24435D01*
X27307Y-24421D01*
X27307Y-24450D01*
X27492Y-24721D02*
X27464Y-24707D01*
X27450Y-24692D01*
X27435Y-24664D01*
X27435Y-24578D01*
X27450Y-24550D01*
X27464Y-24535D01*
X27492Y-24521D01*
X27535Y-24521D01*
X27564Y-24535D01*
X27578Y-24550D01*
X27592Y-24578D01*
X27592Y-24664D01*
X27578Y-24692D01*
X27564Y-24707D01*
X27535Y-24721D01*
X27492Y-24721D01*
X27721Y-24721D02*
X27721Y-24521D01*
X27721Y-24578D02*
X27735Y-24550D01*
X27750Y-24535D01*
X27778Y-24521D01*
X27807Y-24521D01*
X27950Y-24721D02*
X27921Y-24707D01*
X27907Y-24692D01*
X27892Y-24664D01*
X27892Y-24578D01*
X27907Y-24550D01*
X27921Y-24535D01*
X27950Y-24521D01*
X27992Y-24521D01*
X28021Y-24535D01*
X28035Y-24550D01*
X28050Y-24578D01*
X28050Y-24664D01*
X28035Y-24692D01*
X28021Y-24707D01*
X27992Y-24721D01*
X27950Y-24721D01*
X28307Y-24721D02*
X28307Y-24421D01*
X28307Y-24707D02*
X28278Y-24721D01*
X28221Y-24721D01*
X28192Y-24707D01*
X28178Y-24692D01*
X28164Y-24664D01*
X28164Y-24578D01*
X28178Y-24550D01*
X28192Y-24535D01*
X28221Y-24521D01*
X28278Y-24521D01*
X28307Y-24535D01*
X28564Y-24707D02*
X28535Y-24721D01*
X28478Y-24721D01*
X28450Y-24707D01*
X28435Y-24678D01*
X28435Y-24564D01*
X28450Y-24535D01*
X28478Y-24521D01*
X28535Y-24521D01*
X28564Y-24535D01*
X28578Y-24564D01*
X28578Y-24592D01*
X28435Y-24621D01*
X28750Y-24721D02*
X28721Y-24707D01*
X28707Y-24692D01*
X28692Y-24664D01*
X28692Y-24578D01*
X28707Y-24550D01*
X28721Y-24535D01*
X28750Y-24521D01*
X28792Y-24521D01*
X28821Y-24535D01*
X28835Y-24550D01*
X28850Y-24578D01*
X28850Y-24664D01*
X28835Y-24692D01*
X28821Y-24707D01*
X28792Y-24721D01*
X28750Y-24721D01*
X28978Y-24692D02*
X28992Y-24707D01*
X28978Y-24721D01*
X28964Y-24707D01*
X28978Y-24692D01*
X28978Y-24721D01*
X29250Y-24707D02*
X29221Y-24721D01*
X29164Y-24721D01*
X29135Y-24707D01*
X29121Y-24692D01*
X29107Y-24664D01*
X29107Y-24578D01*
X29121Y-24550D01*
X29135Y-24535D01*
X29164Y-24521D01*
X29221Y-24521D01*
X29250Y-24535D01*
X29421Y-24721D02*
X29392Y-24707D01*
X29378Y-24692D01*
X29364Y-24664D01*
X29364Y-24578D01*
X29378Y-24550D01*
X29392Y-24535D01*
X29421Y-24521D01*
X29464Y-24521D01*
X29492Y-24535D01*
X29507Y-24550D01*
X29521Y-24578D01*
X29521Y-24664D01*
X29507Y-24692D01*
X29492Y-24707D01*
X29464Y-24721D01*
X29421Y-24721D01*
X29650Y-24721D02*
X29650Y-24521D01*
X29650Y-24550D02*
X29664Y-24535D01*
X29692Y-24521D01*
X29735Y-24521D01*
X29764Y-24535D01*
X29778Y-24564D01*
X29778Y-24721D01*
X29778Y-24564D02*
X29792Y-24535D01*
X29821Y-24521D01*
X29864Y-24521D01*
X29892Y-24535D01*
X29907Y-24564D01*
X29907Y-24721D01*
X22900Y-20521D02*
X22900Y-20221D01*
X23014Y-20221D01*
X23042Y-20235D01*
X23057Y-20250D01*
X23071Y-20278D01*
X23071Y-20321D01*
X23057Y-20350D01*
X23042Y-20364D01*
X23014Y-20378D01*
X22900Y-20378D01*
X23371Y-20492D02*
X23357Y-20507D01*
X23314Y-20521D01*
X23285Y-20521D01*
X23242Y-20507D01*
X23214Y-20478D01*
X23200Y-20450D01*
X23185Y-20392D01*
X23185Y-20350D01*
X23200Y-20292D01*
X23214Y-20264D01*
X23242Y-20235D01*
X23285Y-20221D01*
X23314Y-20221D01*
X23357Y-20235D01*
X23371Y-20250D01*
X23600Y-20364D02*
X23642Y-20378D01*
X23657Y-20392D01*
X23671Y-20421D01*
X23671Y-20464D01*
X23657Y-20492D01*
X23642Y-20507D01*
X23614Y-20521D01*
X23500Y-20521D01*
X23500Y-20221D01*
X23600Y-20221D01*
X23628Y-20235D01*
X23642Y-20250D01*
X23657Y-20278D01*
X23657Y-20307D01*
X23642Y-20335D01*
X23628Y-20350D01*
X23600Y-20364D01*
X23500Y-20364D01*
X24028Y-20364D02*
X24128Y-20364D01*
X24171Y-20521D02*
X24028Y-20521D01*
X24028Y-20221D01*
X24171Y-20221D01*
X24342Y-20521D02*
X24314Y-20507D01*
X24300Y-20478D01*
X24300Y-20221D01*
X24571Y-20507D02*
X24542Y-20521D01*
X24485Y-20521D01*
X24457Y-20507D01*
X24442Y-20478D01*
X24442Y-20364D01*
X24457Y-20335D01*
X24485Y-20321D01*
X24542Y-20321D01*
X24571Y-20335D01*
X24585Y-20364D01*
X24585Y-20392D01*
X24442Y-20421D01*
X24842Y-20507D02*
X24814Y-20521D01*
X24757Y-20521D01*
X24728Y-20507D01*
X24714Y-20492D01*
X24700Y-20464D01*
X24700Y-20378D01*
X24714Y-20350D01*
X24728Y-20335D01*
X24757Y-20321D01*
X24814Y-20321D01*
X24842Y-20335D01*
X24928Y-20321D02*
X25042Y-20321D01*
X24971Y-20221D02*
X24971Y-20478D01*
X24985Y-20507D01*
X25014Y-20521D01*
X25042Y-20521D01*
X25142Y-20521D02*
X25142Y-20321D01*
X25142Y-20378D02*
X25157Y-20350D01*
X25171Y-20335D01*
X25200Y-20321D01*
X25228Y-20321D01*
X25371Y-20521D02*
X25342Y-20507D01*
X25328Y-20492D01*
X25314Y-20464D01*
X25314Y-20378D01*
X25328Y-20350D01*
X25342Y-20335D01*
X25371Y-20321D01*
X25414Y-20321D01*
X25442Y-20335D01*
X25457Y-20350D01*
X25471Y-20378D01*
X25471Y-20464D01*
X25457Y-20492D01*
X25442Y-20507D01*
X25414Y-20521D01*
X25371Y-20521D01*
X25728Y-20521D02*
X25728Y-20221D01*
X25728Y-20507D02*
X25700Y-20521D01*
X25642Y-20521D01*
X25614Y-20507D01*
X25600Y-20492D01*
X25585Y-20464D01*
X25585Y-20378D01*
X25600Y-20350D01*
X25614Y-20335D01*
X25642Y-20321D01*
X25700Y-20321D01*
X25728Y-20335D01*
X25985Y-20507D02*
X25957Y-20521D01*
X25900Y-20521D01*
X25871Y-20507D01*
X25857Y-20478D01*
X25857Y-20364D01*
X25871Y-20335D01*
X25900Y-20321D01*
X25957Y-20321D01*
X25985Y-20335D01*
X26000Y-20364D01*
X26000Y-20392D01*
X25857Y-20421D01*
X26357Y-20521D02*
X26357Y-20221D01*
X26428Y-20221D01*
X26471Y-20235D01*
X26500Y-20264D01*
X26514Y-20292D01*
X26528Y-20350D01*
X26528Y-20392D01*
X26514Y-20450D01*
X26500Y-20478D01*
X26471Y-20507D01*
X26428Y-20521D01*
X26357Y-20521D01*
X26657Y-20521D02*
X26657Y-20321D01*
X26657Y-20221D02*
X26642Y-20235D01*
X26657Y-20250D01*
X26671Y-20235D01*
X26657Y-20221D01*
X26657Y-20250D01*
X26928Y-20521D02*
X26928Y-20364D01*
X26914Y-20335D01*
X26885Y-20321D01*
X26828Y-20321D01*
X26800Y-20335D01*
X26928Y-20507D02*
X26900Y-20521D01*
X26828Y-20521D01*
X26800Y-20507D01*
X26785Y-20478D01*
X26785Y-20450D01*
X26800Y-20421D01*
X26828Y-20407D01*
X26900Y-20407D01*
X26928Y-20392D01*
X27071Y-20521D02*
X27071Y-20321D01*
X27071Y-20350D02*
X27085Y-20335D01*
X27114Y-20321D01*
X27157Y-20321D01*
X27185Y-20335D01*
X27200Y-20364D01*
X27200Y-20521D01*
X27200Y-20364D02*
X27214Y-20335D01*
X27242Y-20321D01*
X27285Y-20321D01*
X27314Y-20335D01*
X27328Y-20364D01*
X27328Y-20521D01*
X27700Y-20364D02*
X27928Y-20364D01*
X27928Y-20450D02*
X27700Y-20450D01*
X28357Y-20221D02*
X28385Y-20221D01*
X28414Y-20235D01*
X28428Y-20250D01*
X28442Y-20278D01*
X28457Y-20335D01*
X28457Y-20407D01*
X28442Y-20464D01*
X28428Y-20492D01*
X28414Y-20507D01*
X28385Y-20521D01*
X28357Y-20521D01*
X28328Y-20507D01*
X28314Y-20492D01*
X28300Y-20464D01*
X28285Y-20407D01*
X28285Y-20335D01*
X28300Y-20278D01*
X28314Y-20250D01*
X28328Y-20235D01*
X28357Y-20221D01*
X28585Y-20492D02*
X28600Y-20507D01*
X28585Y-20521D01*
X28571Y-20507D01*
X28585Y-20492D01*
X28585Y-20521D01*
X28885Y-20521D02*
X28714Y-20521D01*
X28800Y-20521D02*
X28800Y-20221D01*
X28771Y-20264D01*
X28742Y-20292D01*
X28714Y-20307D01*
X29000Y-20221D02*
X29000Y-20278D01*
X29114Y-20221D02*
X29114Y-20278D01*
X29671Y-20321D02*
X29742Y-20521D01*
X29814Y-20321D01*
X29985Y-20221D02*
X30014Y-20221D01*
X30042Y-20235D01*
X30057Y-20250D01*
X30071Y-20278D01*
X30085Y-20335D01*
X30085Y-20407D01*
X30071Y-20464D01*
X30057Y-20492D01*
X30042Y-20507D01*
X30014Y-20521D01*
X29985Y-20521D01*
X29957Y-20507D01*
X29942Y-20492D01*
X29928Y-20464D01*
X29914Y-20407D01*
X29914Y-20335D01*
X29928Y-20278D01*
X29942Y-20250D01*
X29957Y-20235D01*
X29985Y-20221D01*
X30214Y-20492D02*
X30228Y-20507D01*
X30214Y-20521D01*
X30200Y-20507D01*
X30214Y-20492D01*
X30214Y-20521D01*
X30514Y-20521D02*
X30342Y-20521D01*
X30428Y-20521D02*
X30428Y-20221D01*
X30400Y-20264D01*
X30371Y-20292D01*
X30342Y-20307D01*
G54D13*
X20500Y-21000D02*
X21500Y-21000D01*
X21500Y-21000D02*
X21500Y-24000D01*
X21500Y-24000D02*
X20500Y-24000D01*
X20500Y-24000D02*
X20500Y-21000D01*
X21500Y-22000D02*
X20500Y-22000D01*
X20704Y-20861D02*
X20704Y-20461D01*
X20933Y-20861D02*
X20761Y-20633D01*
X20933Y-20461D02*
X20704Y-20690D01*
X21314Y-20861D02*
X21085Y-20861D01*
X21200Y-20861D02*
X21200Y-20461D01*
X21161Y-20519D01*
X21123Y-20557D01*
X21085Y-20576D01*
M02*
